<?xml version="1.0" standalone="no"?>
<!DOCTYPE svg PUBLIC "-//W3C//DTD SVG 1.1//EN" "http://www.w3.org/Graphics/SVG/1.1/DTD/svg11.dtd">
<svg
    t="1685710577924"
    class="icon"
    viewBox="0 0 1024 1024"
    version="1.1"
    xmlns="http://www.w3.org/2000/svg"
    p-id="3226"
    xmlns:xlink="http://www.w3.org/1999/xlink"
    width="24"
    height="24"
>
    <path
        d="M352 256h512a32 32 0 0 0 0-64H352a32 32 0 0 0 0 64zM864 472.47H352a32 32 0 0 0 0 64h512a32 32 0 0 0 0-64zM864 768H352a32 32 0 0 0 0 64h512a32 32 0 0 0 0-64zM224 192h-64a32 32 0 0 0 0 64h64a32 32 0 0 0 0-64zM224 472.47h-64a32 32 0 0 0 0 64h64a32 32 0 0 0 0-64zM224 768h-64a32 32 0 0 0 0 64h64a32 32 0 0 0 0-64z"
        fill="#231815"
        p-id="3227"
    ></path>
</svg>